# xmcd CD database file
#
# Track frame offsets:
#	150
#	15097
#	30225
#	47625
#	67270
#	83100
#	93862
#	111887
#	131187
#	153012
#	170162
#	188997
#	206325
#	228462
#	246450
#	267775
#	285650
#	307737
#
# Disc length: 4436 seconds
#
# Revision: 0
# Processed by: cddbd v1.5.1PL0 Copyright (c) Steve Scherf et al.
# Submitted via: CDex 1.40Beta6
#
DISCID=ea115212
DTITLE=Alabama - Their Greatest and Finest Performances Disc 3
DYEAR=2001
DGENRE=Country
TTITLE0=Take A Little Trip
TTITLE1=Forty Hour Week (For A Livin)
TTITLE2="Ole" Baugh Road
TTITLE3=You're My Explanation For Living
TTITLE4=I Wanna Come Over
TTITLE5=Woman Back Home
TTITLE6=Between The Two Of Them
TTITLE7=Dixie Boy
TTITLE8=I'm Not That Way Anymore
TTITLE9=Ride The Train
TTITLE10=Angels Amoung Us
TTITLE11=Pass It On Down
TTITLE12=Tar Top
TTITLE13=I Saw The Time
TTITLE14=American Pride
TTITLE15=Hats Off
TTITLE16=The Fans
TTITLE17=Gonna Have A Party (Live)
EXTD=
EXTT0=
EXTT1=
EXTT2=
EXTT3=
EXTT4=
EXTT5=
EXTT6=
EXTT7=
EXTT8=
EXTT9=
EXTT10=
EXTT11=
EXTT12=
EXTT13=
EXTT14=
EXTT15=
EXTT16=
EXTT17=
PLAYORDER=
